<svg width="98" height="13" viewBox="0 0 98 13" fill="none" xmlns="http://www.w3.org/2000/svg">
<path opacity="0.9" d="M7.17188 0.203125V13H4.08691V0.203125H7.17188ZM11.0215 0.203125V2.58496H0.325195V0.203125H11.0215ZM15.9311 0.203125H20.9672C21.9516 0.203125 22.807 0.349609 23.5336 0.642578C24.2602 0.935547 24.8197 1.36914 25.2123 1.94336C25.6107 2.51758 25.81 3.22656 25.81 4.07031C25.81 4.80273 25.6957 5.41504 25.4672 5.90723C25.2387 6.39941 24.9193 6.80664 24.5092 7.12891C24.1049 7.44531 23.6332 7.70605 23.0941 7.91113L22.0834 8.48242H17.8559L17.8383 6.10059H20.9672C21.3598 6.10059 21.685 6.03027 21.9428 5.88965C22.2006 5.74902 22.3939 5.5498 22.5229 5.29199C22.6576 5.02832 22.725 4.71484 22.725 4.35156C22.725 3.98242 22.6576 3.66602 22.5229 3.40234C22.3881 3.13867 22.1889 2.93652 21.9252 2.7959C21.6674 2.65527 21.348 2.58496 20.9672 2.58496H19.016V13H15.9311V0.203125ZM22.9359 13L20.1059 7.33984L23.3754 7.32227L26.2406 12.8682V13H22.9359ZM36.6961 2.89258L33.576 13H30.2625L34.9646 0.203125H37.0652L36.6961 2.89258ZM39.2801 13L36.1512 2.89258L35.7469 0.203125H37.8738L42.6023 13H39.2801ZM39.157 8.22754V10.6094H32.5916V8.22754H39.157ZM51.3 9.98535L53.9631 0.203125H57.4172L53.1018 13H50.8693L51.3 9.98535ZM48.883 0.203125L51.5461 9.98535L51.9943 13H49.7355L45.4465 0.203125H48.883ZM70.7643 10.627V13H63.9439V10.627H70.7643ZM65.0426 0.203125V13H61.9576V0.203125H65.0426ZM69.8854 5.2832V7.57715H63.9439V5.2832H69.8854ZM70.7906 0.203125V2.58496H63.9439V0.203125H70.7906ZM84.085 10.627V13H77.6162V10.627H84.085ZM78.7148 0.203125V13H75.6299V0.203125H78.7148ZM91.3588 3.49023L92.6947 6.10938L94.0746 3.49023H97.1508L94.6547 8.12207L97.2826 13H94.1801L92.6947 10.1875L91.2182 13H88.1156L90.7436 8.12207L88.2562 3.49023H91.3588Z" fill="white"/>
</svg>
